<svg version="1.1" id="Layer_1" xmlns="http://www.w3.org/2000/svg"
  xmlnsXlink="http://www.w3.org/1999/xlink" x="0px" y="0px" width="100%" viewBox="0 0 1024 896"
  enable-background="new 0 0 1024 896" xmlSpace="preserve">
  <path
    fill="currentColor"
    opacity="1.000000"
    stroke="none"
    d="
M366.999908,864.189941 
  C350.333252,864.189575 334.160095,863.910217 318.002319,864.288818 
  C307.400543,864.537109 296.868469,862.832153 287.541473,858.923645 
  C278.645935,855.195862 269.164246,850.661255 263.934021,841.035706 
  C261.016571,835.666382 255.935242,831.306030 253.767624,825.736511 
  C250.779343,818.058350 248.064896,809.690063 247.945679,801.577515 
  C247.362961,761.919556 247.681610,722.248291 247.681534,682.581726 
  C247.681534,680.762329 247.681534,678.942932 247.681534,676.333069 
  C249.878998,676.333069 251.783875,676.333069 253.688736,676.333008 
  C301.188599,676.331055 348.688629,676.387207 396.188202,676.270935 
  C404.243011,676.251221 411.324188,673.888306 418.108582,668.649841 
  C424.369446,663.815613 428.407745,657.972351 431.684082,651.284363 
  C432.993774,648.610962 433.865143,645.416626 433.872345,642.456848 
  C434.001312,589.457336 433.966888,536.457397 433.967529,483.457550 
  C433.967560,481.662628 433.967560,479.867706 433.967560,477.412079 
  C437.028717,478.092072 439.468903,479.043793 441.931824,479.106812 
  C450.353699,479.322327 457.804779,477.209259 465.295349,472.538696 
  C471.040894,468.956146 474.626007,464.695068 476.493713,458.932587 
  C478.069611,454.070587 479.013214,448.717529 478.837555,443.630127 
  C478.393372,430.766998 471.842987,421.118713 461.426025,413.822174 
  C457.825409,411.300140 454.595581,408.255035 451.119232,405.547943 
  C444.588715,400.462524 437.948914,395.516449 431.454346,390.386108 
  C425.567383,385.735718 419.874847,380.839050 413.986237,376.190826 
  C404.809937,368.947479 395.482208,361.895508 386.330383,354.621826 
  C380.074707,349.649933 374.104095,344.318787 367.835541,339.363922 
  C359.182709,332.524384 350.348328,325.914948 341.635468,319.150604 
  C338.420868,316.654938 335.372101,313.946442 332.175873,311.426117 
  C320.174622,301.962738 308.095154,292.597961 296.143585,283.072571 
  C289.762024,277.986420 283.658142,272.552338 277.289795,267.448883 
  C270.829529,262.271759 264.179047,257.332611 257.649841,252.240601 
  C254.697281,249.937943 251.787933,247.573135 248.970490,245.109055 
  C248.311676,244.532837 247.791138,243.457260 247.739563,242.580109 
  C247.140915,232.399536 246.173706,222.210190 246.232620,212.028564 
  C246.318634,197.167862 247.450729,182.314728 247.614609,167.452606 
  C247.868179,144.455460 247.609772,121.453163 247.707581,98.453644 
  C247.764374,85.097893 252.557053,73.441338 259.889923,62.316647 
  C266.214691,52.721386 275.229523,46.798119 284.775757,41.639122 
  C289.855225,38.894051 296.052399,37.093124 301.813446,36.899368 
  C415.634766,33.071411 529.496094,36.150230 643.337585,35.191666 
  C663.836121,35.019062 684.337891,35.253159 704.836792,35.106327 
  C710.146973,35.068295 714.411011,37.239506 717.991516,40.595242 
  C730.176270,52.015015 742.119202,63.692215 754.212219,75.210457 
  C762.929565,83.513435 771.732666,91.726440 780.508850,99.967468 
  C788.926208,107.871506 797.352600,115.765945 805.785278,123.653671 
  C813.729919,131.084915 821.707153,138.481445 829.635376,145.930206 
  C838.785034,154.526627 847.885132,163.175705 857.028015,171.779388 
  C865.432678,179.688354 873.827271,187.608734 882.304688,195.439194 
  C885.659851,198.538300 889.694092,201.026077 892.542419,204.509140 
  C894.639587,207.073700 896.454163,210.801788 896.457153,214.013184 
  C896.638611,411.512482 896.642456,609.012024 896.557190,806.511475 
  C896.552673,816.995605 891.878601,826.199951 886.303589,834.737061 
  C879.290466,845.476257 870.017883,853.905273 857.860535,858.495667 
  C852.796448,860.407776 847.356506,862.430237 842.069397,862.479919 
  C761.380920,863.238159 680.690063,863.870422 599.998535,864.136353 
  C522.499817,864.391785 444.999542,864.190735 366.999908,864.189941 
z"
  />
  <path
    fill="currentColor"
    opacity="1.000000"
    stroke="none"
    d="
M281.705688,307.461884 
  C287.567932,311.816040 293.241272,315.826843 298.818054,319.967682 
  C306.879974,325.953705 314.914459,331.978577 322.879272,338.092865 
  C328.431610,342.355133 333.778198,346.885864 339.341034,351.133850 
  C347.309174,357.218597 355.433136,363.099152 363.408997,369.173981 
  C368.710876,373.212036 373.814789,377.509644 379.106506,381.561523 
  C387.346985,387.871277 395.731323,393.993835 403.943542,400.339600 
  C411.658783,406.301331 419.202789,412.484131 426.872681,418.505310 
  C433.763916,423.915222 440.747223,429.207855 447.646057,434.608246 
  C453.235626,438.983765 454.004883,446.912689 451.167816,452.340942 
  C448.212708,457.994934 443.054413,459.479401 435.277252,459.292114 
  C430.232117,459.170593 428.221558,455.379547 424.904510,453.436493 
  C419.070648,450.019287 414.129211,445.078583 407.596985,439.790619 
  C407.596985,442.777985 407.596985,444.614899 407.597015,446.451813 
  C407.597687,504.768890 407.768524,563.087097 407.391907,621.401733 
  C407.342682,629.023865 404.878876,636.739197 402.785187,644.201355 
  C401.373627,649.232300 397.254120,651.549683 391.796692,651.547058 
  C295.656860,651.500793 199.516968,651.511536 103.377098,651.507080 
  C94.662682,651.506714 87.758232,644.631897 87.758698,635.714294 
  C87.762001,572.731812 87.761162,509.749359 87.761642,446.766907 
  C87.761658,444.966339 87.761635,443.165771 87.761635,440.104584 
  C82.060631,444.484924 77.325287,448.536926 72.168762,451.953186 
  C68.107277,454.644012 65.202652,458.985077 59.371929,459.337738 
  C53.993771,459.663055 46.766064,457.556458 44.360382,453.275970 
  C41.468346,448.130066 41.849480,440.105133 46.080921,436.395111 
  C52.662846,430.624207 59.792450,425.479218 66.671097,420.045135 
  C72.166252,415.704041 77.566643,411.240173 83.128822,406.987427 
  C91.094666,400.896851 99.208626,395.000183 107.184258,388.922180 
  C112.485641,384.882111 117.651352,380.664215 122.886223,376.536591 
  C127.989288,372.512848 133.063690,368.451263 138.222549,364.500092 
  C144.143616,359.965210 150.139481,355.527924 156.110458,351.058350 
  C164.150009,345.040314 172.244690,339.094666 180.223953,332.997803 
  C185.649551,328.852203 190.887909,324.462555 196.263901,320.250854 
  C203.296066,314.741577 210.344437,309.251587 217.455414,303.844788 
  C223.258591,299.432373 229.480164,295.513031 234.929825,290.709778 
  C239.815735,286.403412 245.013931,284.023773 251.363541,285.233307 
  C253.758881,285.689606 256.122772,287.195801 258.115295,288.725708 
  C265.984497,294.767761 273.700684,301.009186 281.705688,307.461884 
M308.223511,505.582733 
  C308.223511,544.281250 308.223511,582.979797 308.223511,621.697632 
  C330.793213,621.697632 354.206268,621.697632 378.065247,621.697632 
  C378.065247,619.607727 378.065247,617.813232 378.065277,616.018738 
  C378.065887,551.540649 377.998993,487.062317 378.198639,422.584808 
  C378.214142,417.577484 375.697784,415.036133 372.358429,412.540161 
  C367.048859,408.571625 361.604950,404.780304 356.348541,400.743866 
  C350.929047,396.582245 345.734222,392.128113 340.318115,387.961823 
  C332.093994,381.635498 323.740723,375.477325 315.486450,369.189758 
  C310.054871,365.052307 304.756836,360.738495 299.298523,356.637390 
  C292.055725,351.195557 284.636414,345.986969 277.437805,340.488495 
  C269.819397,334.669495 262.233826,328.791077 254.896805,322.625793 
  C250.073624,318.572876 246.130951,317.586182 240.843674,322.349487 
  C234.234360,328.303833 226.730698,333.258423 219.690063,338.743378 
  C214.296326,342.945282 209.123505,347.434753 203.672104,351.557922 
  C193.873215,358.969360 183.858231,366.095947 174.086945,373.542816 
  C166.325592,379.457916 158.896484,385.809082 151.133240,391.721558 
  C141.345520,399.175873 131.334869,406.336853 121.493263,413.721466 
  C118.643555,415.859711 117.134674,418.455048 117.145737,422.525421 
  C117.321434,487.169647 117.269630,551.814514 117.269829,616.459229 
  C117.269836,618.218262 117.269829,619.977356 117.269829,621.822327 
  C141.329178,621.822327 164.626175,621.822327 187.833160,621.822327 
  C187.579346,620.052368 187.149155,618.445190 187.147598,616.837585 
  C187.110428,578.350647 187.073914,539.863586 187.154251,501.376831 
  C187.172379,492.693390 194.883682,485.367096 203.550964,485.365814 
  C233.207565,485.361450 262.864197,485.345062 292.520660,485.408295 
  C294.231171,485.411957 296.073944,485.787140 297.627411,486.491669 
  C305.379456,490.007507 308.614532,496.275635 308.223511,505.582733 
M277.070160,621.966003 
  C277.618347,620.268799 278.639709,618.572937 278.644684,616.874146 
  C278.739807,584.543762 278.715149,552.213074 278.715363,519.882446 
  C278.715363,518.306030 278.715363,516.729675 278.715363,515.146484 
  C257.646118,515.146484 237.377914,515.146484 216.945679,515.146484 
  C216.945679,550.797180 216.945679,586.185486 216.945679,621.996033 
  C236.876602,621.996033 256.503235,621.996033 277.070160,621.966003 
z"
  />
  <path
    style="fill: none"
    opacity="1.000000"
    stroke="none"
    d="
M308.223450,505.096680 
  C308.614532,496.275635 305.379456,490.007507 297.627411,486.491669 
  C296.073944,485.787140 294.231171,485.411957 292.520660,485.408295 
  C262.864197,485.345062 233.207565,485.361450 203.550964,485.365814 
  C194.883682,485.367096 187.172379,492.693390 187.154251,501.376831 
  C187.073914,539.863586 187.110428,578.350647 187.147598,616.837585 
  C187.149155,618.445190 187.579346,620.052368 187.833160,621.822327 
  C164.626175,621.822327 141.329178,621.822327 117.269829,621.822327 
  C117.269829,619.977356 117.269836,618.218262 117.269829,616.459229 
  C117.269630,551.814514 117.321434,487.169647 117.145737,422.525421 
  C117.134674,418.455048 118.643555,415.859711 121.493263,413.721466 
  C131.334869,406.336853 141.345520,399.175873 151.133240,391.721558 
  C158.896484,385.809082 166.325592,379.457916 174.086945,373.542816 
  C183.858231,366.095947 193.873215,358.969360 203.672104,351.557922 
  C209.123505,347.434753 214.296326,342.945282 219.690063,338.743378 
  C226.730698,333.258423 234.234360,328.303833 240.843674,322.349487 
  C246.130951,317.586182 250.073624,318.572876 254.896805,322.625793 
  C262.233826,328.791077 269.819397,334.669495 277.437805,340.488495 
  C284.636414,345.986969 292.055725,351.195557 299.298523,356.637390 
  C304.756836,360.738495 310.054871,365.052307 315.486450,369.189758 
  C323.740723,375.477325 332.093994,381.635498 340.318115,387.961823 
  C345.734222,392.128113 350.929047,396.582245 356.348541,400.743866 
  C361.604950,404.780304 367.048859,408.571625 372.358429,412.540161 
  C375.697784,415.036133 378.214142,417.577484 378.198639,422.584808 
  C377.998993,487.062317 378.065887,551.540649 378.065277,616.018738 
  C378.065247,617.813232 378.065247,619.607727 378.065247,621.697632 
  C354.206268,621.697632 330.793213,621.697632 308.223511,621.697632 
  C308.223511,582.979797 308.223511,544.281250 308.223450,505.096680 
z"
  />
  <path
    style="fill: none"
    opacity="1.000000"
    stroke="none"
    d="
M276.600006,621.981018 
  C256.503235,621.996033 236.876602,621.996033 216.945679,621.996033 
  C216.945679,586.185486 216.945679,550.797180 216.945679,515.146484 
  C237.377914,515.146484 257.646118,515.146484 278.715363,515.146484 
  C278.715363,516.729675 278.715363,518.306030 278.715363,519.882446 
  C278.715149,552.213074 278.739807,584.543762 278.644684,616.874146 
  C278.639709,618.572937 277.618347,620.268799 276.600006,621.981018 
z"
  />
</svg>