<svg version="1.1" id="Layer_1" xmlns="http://www.w3.org/2000/svg" xmlnsXlink="http://www.w3.org/1999/xlink" x="0px" y="0px" width="100%" viewBox="0 0 1024 896" enable-background="new 0 0 1024 896" xmlSpace="preserve">
 <path
        fill="currentColor"
        opacity="1.000000"
        stroke="none"
        d="
		M429.999878,782.795166 
			C397.002197,782.794739 364.495911,783.233032 332.010651,782.597839 
			C317.135529,782.306946 303.060181,777.531982 292.473785,766.397827 
			C284.155853,757.649414 277.191345,747.784424 276.353180,734.962708 
			C276.109039,731.228516 275.144257,727.518066 275.136444,723.795349 
			C275.046814,681.131897 275.078308,638.468201 275.077515,595.804565 
			C275.077484,593.996582 275.077515,592.188538 275.077515,589.760315 
			C269.683655,589.760315 264.570862,589.513306 259.489624,589.808777 
			C246.615036,590.557495 234.781860,578.328369 235.245361,565.471558 
			C235.707504,552.652954 223.643600,543.093079 211.059738,546.130981 
			C208.649490,546.712769 206.607635,549.367432 204.693497,551.352844 
			C199.409149,556.833862 192.996307,559.714172 185.455948,559.589417 
			C179.242554,559.486633 173.624176,557.253479 169.132828,552.873169 
			C161.508636,545.437500 154.296738,537.561401 146.443924,530.381897 
			C135.050415,519.965271 135.221924,503.451660 146.525330,493.157074 
			C150.490662,489.545654 153.153305,485.358887 151.733063,480.109283 
			C150.049896,473.887878 148.098221,467.396118 142.396301,463.501862 
			C140.617676,462.287109 137.702026,462.362823 135.330841,462.456299 
			C126.180099,462.817047 118.724541,459.497650 112.696281,452.713043 
			C108.106606,447.547607 107.546463,441.274841 107.565582,434.773895 
			C107.580223,429.796265 107.023109,424.799957 107.296562,419.843750 
			C107.770546,411.253082 107.613747,402.408875 109.736000,394.191254 
			C111.733414,386.457062 120.477737,380.671234 129.245926,380.281158 
			C134.929382,380.028290 141.387436,381.499298 145.325119,376.289185 
			C149.738480,370.449646 153.047119,363.754150 151.748749,355.954590 
			C151.536041,354.676727 150.176254,353.570068 149.290649,352.427673 
			C146.497604,348.824799 143.051559,345.567261 140.989655,341.589569 
			C135.486542,330.973480 137.294998,321.613312 145.766205,313.128357 
			C154.026154,304.855042 162.287643,296.582977 170.588058,288.350311 
			C177.919235,281.078949 194.189392,281.178314 201.649567,288.314392 
			C205.589859,292.083496 208.804184,298.158112 215.332047,296.574005 
			C221.186386,295.153320 226.990524,292.596283 232.071976,289.368073 
			C234.166870,288.037201 234.972794,283.692902 235.209183,280.630035 
			C235.672287,274.629486 235.536942,268.821442 239.037964,263.301483 
			C244.017853,255.449860 251.349457,252.498642 259.888916,251.688431 
			C264.658569,251.235901 269.506378,251.607071 275.079498,251.607071 
			C275.079498,249.564117 275.079529,247.822708 275.079498,246.081284 
			C275.078705,200.417862 275.128571,154.754364 275.043701,109.091095 
			C275.020813,96.771309 278.989929,85.988457 285.735596,75.785851 
			C291.586578,66.936432 299.699860,60.869724 309.033478,57.084274 
			C316.529419,54.044147 324.999908,51.960758 333.044891,51.938316 
			C447.869171,51.617908 562.694580,51.737122 677.519714,51.667545 
			C682.660583,51.664429 686.736450,53.561192 690.293213,56.938187 
			C700.732544,66.850029 711.104431,76.832817 721.544312,86.744110 
			C729.219055,94.030273 736.959717,101.246941 744.669739,108.495956 
			C752.134949,115.514809 759.589417,122.545074 767.065369,129.552383 
			C774.176453,136.217712 781.323792,142.844421 788.428772,149.516266 
			C796.260681,156.870773 803.998169,164.326889 811.893250,171.612488 
			C822.092224,181.024139 832.389771,190.329330 842.681519,199.639862 
			C845.774902,202.438370 847.385132,205.644745 847.383423,209.997635 
			C847.315613,383.818573 847.364807,557.639526 847.238770,731.460449 
			C847.230042,743.472595 841.325562,753.525330 833.917297,762.586365 
			C825.766357,772.555786 815.050354,778.483704 802.571899,781.165161 
			C798.286804,782.085876 793.843750,782.722900 789.472351,782.725952 
			C669.814880,782.809509 550.157410,782.794128 429.999878,782.795166 
		M253.172791,277.064667 
			C253.118774,281.058746 253.849777,285.257812 252.870102,289.010223 
			C249.289871,302.723358 233.484497,313.879578 218.953903,314.699097 
			C207.387726,315.351379 198.031815,311.898956 190.499207,303.222382 
			C187.618393,299.904053 184.848770,299.910980 181.721497,303.120728 
			C174.403214,310.632050 166.923004,317.985596 159.509399,325.404053 
			C154.766602,330.149963 155.054749,331.483154 159.598404,336.802094 
			C163.056091,340.849762 166.308731,345.290527 168.571152,350.068512 
			C170.218613,353.547760 170.887573,357.928467 170.561127,361.786163 
			C170.204605,365.999664 168.569656,370.237549 166.829727,374.171936 
			C163.851852,380.905640 161.755142,388.091064 154.482162,392.290863 
			C148.674850,395.644287 142.921143,398.155518 136.209320,398.047668 
			C128.690308,397.926880 125.105377,398.986481 125.714897,408.578094 
			C126.284515,417.541809 125.831894,426.570099 125.840866,435.569946 
			C125.846405,441.126251 128.930527,444.384521 134.476425,444.641357 
			C136.305817,444.726074 138.148834,444.754639 139.974579,444.637329 
			C146.713409,444.204285 151.893631,447.525543 156.739624,451.573730 
			C162.889954,456.711517 165.523346,463.968231 168.247818,471.139221 
			C171.095261,478.633942 171.320557,486.436493 168.039841,493.558014 
			C165.651382,498.742676 161.541138,503.209564 157.812042,507.673645 
			C155.470154,510.477142 154.998489,512.807983 157.615860,515.435547 
			C165.367310,523.216919 173.091721,531.026489 180.935959,538.713562 
			C184.873856,542.572632 187.278168,542.415894 191.380249,538.650024 
			C193.797211,536.431152 196.046387,533.876160 198.820572,532.229797 
			C205.919754,528.016602 213.503799,524.894897 221.860245,528.198059 
			C228.862976,530.966125 236.239609,533.414368 242.384232,537.578064 
			C251.220200,543.565430 253.885788,553.004089 253.247925,563.562866 
			C252.887878,569.522400 255.534775,571.917175 261.451172,571.939026 
			C271.284210,571.975281 281.117523,571.960693 290.950653,571.944946 
			C296.726288,571.935669 299.611664,568.948242 299.790894,563.223389 
			C299.902588,559.655640 300.192017,556.069214 300.738586,552.543457 
			C303.285675,536.113220 324.460724,528.024414 336.542755,527.052307 
			C345.863251,526.302368 354.272064,530.049622 360.738068,537.657898 
			C365.378937,543.118591 367.793976,542.846924 372.822449,537.849060 
			C379.549042,531.163452 386.244324,524.446106 392.926697,517.716309 
			C397.953339,512.653992 397.881134,510.756683 392.834534,505.552643 
			C384.729187,497.194366 380.062592,487.397339 383.417938,475.748322 
			C385.446289,468.706299 388.363464,461.543915 392.525543,455.583832 
			C398.295959,447.320679 406.962616,443.668823 417.482269,444.537689 
			C423.933319,445.070526 427.047760,441.470032 427.050110,435.020172 
			C427.053284,426.353638 427.051056,417.687134 427.050079,409.020599 
			C427.049011,399.403931 425.680176,398.114777 415.853119,398.050507 
			C407.343475,397.994843 399.134827,395.693024 394.213715,388.767090 
			C389.523193,382.165649 386.395264,374.320526 383.422089,366.694000 
			C382.121063,363.356720 382.577942,359.180695 382.825378,355.424377 
			C383.379272,347.015198 388.489777,341.133087 394.262787,335.577942 
			C397.352600,332.604767 397.992432,329.538239 394.137299,325.964752 
			C386.450531,318.839478 379.227783,311.214172 371.802002,303.806732 
			C367.490692,299.506042 366.303101,299.800964 361.558289,303.884705 
			C357.538818,307.344208 353.295776,311.066681 348.478668,312.964844 
			C339.235626,316.607056 330.026093,314.498047 320.962341,310.800354 
			C312.644897,307.407135 305.159332,303.137756 302.194946,294.262177 
			C300.533569,289.287872 300.242523,283.787048 299.824554,278.484802 
			C299.370117,272.720154 297.720367,270.766113 292.110657,270.760040 
			C282.110809,270.749176 272.103943,270.977020 262.114319,270.657501 
			C257.578522,270.512421 254.356445,271.399750 253.172791,277.064667 
		z"
      />
      <path
				style={{
					fill: "none"
				}}
        opacity="1.000000"
        stroke="none"
        d="
		M253.184540,276.624481 
			C254.356445,271.399750 257.578522,270.512421 262.114319,270.657501 
			C272.103943,270.977020 282.110809,270.749176 292.110657,270.760040 
			C297.720367,270.766113 299.370117,272.720154 299.824554,278.484802 
			C300.242523,283.787048 300.533569,289.287872 302.194946,294.262177 
			C305.159332,303.137756 312.644897,307.407135 320.962341,310.800354 
			C330.026093,314.498047 339.235626,316.607056 348.478668,312.964844 
			C353.295776,311.066681 357.538818,307.344208 361.558289,303.884705 
			C366.303101,299.800964 367.490692,299.506042 371.802002,303.806732 
			C379.227783,311.214172 386.450531,318.839478 394.137299,325.964752 
			C397.992432,329.538239 397.352600,332.604767 394.262787,335.577942 
			C388.489777,341.133087 383.379272,347.015198 382.825378,355.424377 
			C382.577942,359.180695 382.121063,363.356720 383.422089,366.694000 
			C386.395264,374.320526 389.523193,382.165649 394.213715,388.767090 
			C399.134827,395.693024 407.343475,397.994843 415.853119,398.050507 
			C425.680176,398.114777 427.049011,399.403931 427.050079,409.020599 
			C427.051056,417.687134 427.053284,426.353638 427.050110,435.020172 
			C427.047760,441.470032 423.933319,445.070526 417.482269,444.537689 
			C406.962616,443.668823 398.295959,447.320679 392.525543,455.583832 
			C388.363464,461.543915 385.446289,468.706299 383.417938,475.748322 
			C380.062592,487.397339 384.729187,497.194366 392.834534,505.552643 
			C397.881134,510.756683 397.953339,512.653992 392.926697,517.716309 
			C386.244324,524.446106 379.549042,531.163452 372.822449,537.849060 
			C367.793976,542.846924 365.378937,543.118591 360.738068,537.657898 
			C354.272064,530.049622 345.863251,526.302368 336.542755,527.052307 
			C324.460724,528.024414 303.285675,536.113220 300.738586,552.543457 
			C300.192017,556.069214 299.902588,559.655640 299.790894,563.223389 
			C299.611664,568.948242 296.726288,571.935669 290.950653,571.944946 
			C281.117523,571.960693 271.284210,571.975281 261.451172,571.939026 
			C255.534775,571.917175 252.887878,569.522400 253.247925,563.562866 
			C253.885788,553.004089 251.220200,543.565430 242.384232,537.578064 
			C236.239609,533.414368 228.862976,530.966125 221.860245,528.198059 
			C213.503799,524.894897 205.919754,528.016602 198.820572,532.229797 
			C196.046387,533.876160 193.797211,536.431152 191.380249,538.650024 
			C187.278168,542.415894 184.873856,542.572632 180.935959,538.713562 
			C173.091721,531.026489 165.367310,523.216919 157.615860,515.435547 
			C154.998489,512.807983 155.470154,510.477142 157.812042,507.673645 
			C161.541138,503.209564 165.651382,498.742676 168.039841,493.558014 
			C171.320557,486.436493 171.095261,478.633942 168.247818,471.139221 
			C165.523346,463.968231 162.889954,456.711517 156.739624,451.573730 
			C151.893631,447.525543 146.713409,444.204285 139.974579,444.637329 
			C138.148834,444.754639 136.305817,444.726074 134.476425,444.641357 
			C128.930527,444.384521 125.846405,441.126251 125.840866,435.569946 
			C125.831894,426.570099 126.284515,417.541809 125.714897,408.578094 
			C125.105377,398.986481 128.690308,397.926880 136.209320,398.047668 
			C142.921143,398.155518 148.674850,395.644287 154.482162,392.290863 
			C161.755142,388.091064 163.851852,380.905640 166.829727,374.171936 
			C168.569656,370.237549 170.204605,365.999664 170.561127,361.786163 
			C170.887573,357.928467 170.218613,353.547760 168.571152,350.068512 
			C166.308731,345.290527 163.056091,340.849762 159.598404,336.802094 
			C155.054749,331.483154 154.766602,330.149963 159.509399,325.404053 
			C166.923004,317.985596 174.403214,310.632050 181.721497,303.120728 
			C184.848770,299.910980 187.618393,299.904053 190.499207,303.222382 
			C198.031815,311.898956 207.387726,315.351379 218.953903,314.699097 
			C233.484497,313.879578 249.289871,302.723358 252.870102,289.010223 
			C253.849777,285.257812 253.118774,281.058746 253.184540,276.624481 
		M188.827560,425.303040 
			C189.283508,427.343964 189.782425,429.376373 190.187195,431.427399 
			C191.313126,437.132721 191.822083,443.033783 193.607574,448.521484 
			C199.630081,467.031647 211.086655,481.811127 226.960175,492.806793 
			C240.676971,502.308502 255.795425,508.072601 273.013123,507.771545 
			C283.237488,507.592743 293.534637,507.733276 303.177612,504.433777 
			C321.430298,498.188293 336.379120,487.047852 347.679138,471.267670 
			C358.195740,456.581543 363.005951,439.844147 363.846497,422.109406 
			C364.187256,414.920288 362.543976,407.528778 361.028381,400.394043 
			C359.800385,394.613403 358.194092,388.651550 355.386810,383.518738 
			C348.000275,370.013367 338.904938,358.066498 325.745148,349.083679 
			C313.002411,340.385559 299.221649,335.149536 284.295502,334.073914 
			C273.984283,333.330841 263.044891,334.091278 253.107697,336.813507 
			C229.516571,343.276184 211.493927,357.765961 199.719284,379.438110 
			C192.134003,393.399384 189.189865,408.588440 188.827560,425.303040 
		z"
      />
      <path
        fill="currentColor"
        opacity="1.000000"
        stroke="none"
        d="
		M188.827255,424.828186 
			C189.189865,408.588440 192.134003,393.399384 199.719284,379.438110 
			C211.493927,357.765961 229.516571,343.276184 253.107697,336.813507 
			C263.044891,334.091278 273.984283,333.330841 284.295502,334.073914 
			C299.221649,335.149536 313.002411,340.385559 325.745148,349.083679 
			C338.904938,358.066498 348.000275,370.013367 355.386810,383.518738 
			C358.194092,388.651550 359.800385,394.613403 361.028381,400.394043 
			C362.543976,407.528778 364.187256,414.920288 363.846497,422.109406 
			C363.005951,439.844147 358.195740,456.581543 347.679138,471.267670 
			C336.379120,487.047852 321.430298,498.188293 303.177612,504.433777 
			C293.534637,507.733276 283.237488,507.592743 273.013123,507.771545 
			C255.795425,508.072601 240.676971,502.308502 226.960175,492.806793 
			C211.086655,481.811127 199.630081,467.031647 193.607574,448.521484 
			C191.822083,443.033783 191.313126,437.132721 190.187195,431.427399 
			C189.782425,429.376373 189.283508,427.343964 188.827255,424.828186 
		z"
      />
</svg>